<?xml version="1.0" ?><svg data-name="Layer 1" id="Layer_1" viewBox="0 0 64 64" xmlns="http://www.w3.org/2000/svg"><title/><desc/><path d="M47.06,41a6,6,0,0,1-5-2.69,6,6,0,0,1-10,0,6,6,0,0,1-10,0,6,6,0,0,1-5,2.69,4.58,4.58,0,0,1-.64,0,6,6,0,0,0,10.64,5.35,6,6,0,0,0,10,0A6,6,0,0,0,47.7,41,4.49,4.49,0,0,1,47.06,41Z" style="fill:#79bd9a"/><path d="M37.06,55a6,6,0,0,1-5-2.69,6,6,0,0,1-5,2.69,6.39,6.39,0,0,1-1-.09s0,.06,0,.09a6,6,0,1,0,12,0v-.09A6.64,6.64,0,0,1,37.06,55Z" style="fill:#79bd9a"/><path d="M42.06,49a6,6,0,0,1-5-2.69,6,6,0,0,1-10,0,6,6,0,0,1-5,2.69,6.39,6.39,0,0,1-1-.09s0,.06,0,.09a6,6,0,0,0,11,3.31,6,6,0,0,0,11-3.31v-.09A6.64,6.64,0,0,1,42.06,49Z" style="fill:#a8dba8"/><path d="M49.82,29.69a6,6,0,0,1-11.65-.56l-.21,0a6,6,0,0,1-11.8,0l-.21,0a6,6,0,0,1-11.65.56,6,6,0,1,0,7.76,8.64,6,6,0,0,0,10,0,6,6,0,0,0,10,0,6,6,0,1,0,7.76-8.64Z" style="fill:#a8dba8"/><path d="M32.82,3H31.3a4,4,0,0,0-3.86,5.05L29.06,14h6l1.62-5.95A4,4,0,0,0,32.82,3Z" style="fill:#a8dba8"/><path d="M44.06,31a6,6,0,0,1-6-6,6,6,0,1,1-12,0,6,6,0,0,1-12,.5c0,.17,0,.33,0,.5v2a6,6,0,1,0,12,0,6,6,0,1,0,12,0,6,6,0,1,0,12,0V26c0-.17,0-.33,0-.5A6,6,0,0,1,44.06,31Z" style="fill:#cff09e"/><path d="M49.9,24.16A6.09,6.09,0,0,1,44.25,29a6,6,0,0,1-6.19-6,6,6,0,0,1-6,6c-3.31,0-5-2.69-5-6,0,.85-.47-8.36,5-8.92V14h-6a12,12,0,0,0-12,11.77v2A6.17,6.17,0,0,0,19.88,34a6,6,0,0,0,6.18-6,6,6,0,1,0,12,0,6,6,0,0,0,6.19,6,6.17,6.17,0,0,0,5.81-6.25V26A11.29,11.29,0,0,0,49.9,24.16Z" style="fill:#cff09e"/><path d="M54.06,35A7,7,0,0,0,51,29.21a6.75,6.75,0,0,0,.1-1.19V26a13,13,0,0,0-13-13H36.37l1.28-4.69A5,5,0,0,0,32.82,2H31.3a5,5,0,0,0-4.83,6.31L27.75,13H26.06a13,13,0,0,0-13,13v2a7.85,7.85,0,0,0,.1,1.19,7,7,0,0,0,2,12.55A6.72,6.72,0,0,0,15.06,43a7,7,0,0,0,5,6.72,7,7,0,0,0,5,6,7,7,0,0,0,13.92,0,7,7,0,0,0,5-6,7,7,0,0,0,5-6.72,6.72,6.72,0,0,0-.12-1.26A7,7,0,0,0,54.06,35ZM28.4,7.81A3,3,0,0,1,31.3,4h1.52a3,3,0,0,1,2.9,3.79L34.3,13H29.83ZM15.06,26a11,11,0,0,1,11-11h12a11,11,0,0,1,11,11v2a4.78,4.78,0,0,1-.18,1.32c0,.05,0,.1,0,.15A5,5,0,0,1,39.06,28a1,1,0,1,0-2,0,5,5,0,0,1-10,0,1,1,0,0,0-2,0,5,5,0,0,1-9.78,1.47.83.83,0,0,0,0-.15A4.78,4.78,0,0,1,15.06,28Zm17,34a5,5,0,0,1-4.9-4,7,7,0,0,0,4.9-2.1A7,7,0,0,0,37,56,5,5,0,0,1,32.06,60Zm5-6a5,5,0,0,1-4.17-2.24,1,1,0,0,0-1.66,0A5,5,0,0,1,22.16,50a7,7,0,0,0,4.9-2.1,7,7,0,0,0,10,0A7,7,0,0,0,42,50,5,5,0,0,1,37.06,54Zm5-6a5,5,0,0,1-4.17-2.24,1,1,0,0,0-1.66,0,5,5,0,0,1-8.34,0,1,1,0,0,0-1.66,0A5,5,0,0,1,17.06,43a4.79,4.79,0,0,1,.11-1,7,7,0,0,0,4.89-2.1,7,7,0,0,0,10,0,7,7,0,0,0,10,0A7,7,0,0,0,47,42a4.78,4.78,0,0,1,.1,1A5,5,0,0,1,42.06,48Zm5.59-8h-.1a3.91,3.91,0,0,1-.49,0,5,5,0,0,1-4.17-2.24,1,1,0,0,0-1.66,0,5,5,0,0,1-8.34,0,1,1,0,0,0-1.66,0,5,5,0,0,1-8.34,0,1,1,0,0,0-1.66,0A5,5,0,0,1,17.06,40l-.48,0h-.1a5,5,0,0,1-2.65-8.77,7,7,0,0,0,12.23.41,7,7,0,0,0,12,0,7,7,0,0,0,12.23-.41A5,5,0,0,1,47.65,40Z" style="fill:#3b8686"/></svg>